<svg
  width="100%"
  height="100%"
  viewBox="0 0 200 60"
  xmlns="http://www.w3.org/2000/svg"
  fill="none"
>
  <rect x="2" y="2" width="56" height="56" rx="12" fill="#3B82F6" />
  <path
    d="M25 30c0-2.8 2.2-5 5-5h10c2.8 0 5 2.2 5 5s-2.2 5-5 5h-5v5h5c5.5 0 10-4.5 10-10s-4.5-10-10-10H30c-5.5 0-10 4.5-10 10s4.5 10 10 10h5v-5h-5c-2.8 0-5-2.2-5-5z"
    fill="#fff"
  />
  <text
    x="70"
    y="40"
    fill="#1F2937"
    font-family="Arial, sans-serif"
    font-size="24"
    font-weight="bold"
  >
    ChainFin
  </text>
</svg>
